#!OML:ASF F:\VICON\USERDATA\INSTALL\Justin_Nancy\Justin_Nancy.ASF
:FULLY-SPECIFIED
:DEGREES
149
root -4.5593 17.0141 -1.09702 -0.378263 32.6364 -6.45409
lowerback 7.38433 1.1441 3.82756
upperback -1.18073 2.07064 3.18823
thorax -5.36562 0.964676 0.925157
lowerneck -15.3169 -3.6525 -9.15015
upperneck 23.2021 -3.75057 4.4583
head 10.2045 -1.98251 2.61936
rclavicle -1.33931e-014 4.37326e-015
rhumerus -37.9501 -13.8784 -76.2177
rradius 39.7293
rwrist -0.786525
rhand -19.2832 12.3161
rfingers 7.12502
rthumb 7.03181 -17.5471
lclavicle -1.33931e-014 4.37326e-015
lhumerus -50.1407 38.7853 55.7706
lradius 11.2188
lwrist -39.0306
lhand -13.825 22.7024
lfingers 7.12502
lthumb 12.2979 52.3208
rfemur 14.4218 6.06629 24.1093
rtibia 29.5576
rfoot 9.3451 9.46796
rtoes -17.4486
lfemur -36.3576 0.0311249 -23.3883
ltibia 34.6094
lfoot -1.89223 3.43986
ltoes 9.28524
150
root -4.41905 17.0281 -0.884382 -0.535356 32.5273 -6.25072
lowerback 7.39437 1.23871 3.75412
upperback -0.900506 2.17337 3.14745
thorax -5.07683 1.02243 0.913134
lowerneck -15.6866 -3.6411 -9.11545
upperneck 22.9855 -3.67627 4.33619
head 10.1884 -1.95417 2.57383
rclavicle 6.55989e-015 -1.11319e-014
rhumerus -37.8917 -14.0621 -76.1759
rradius 39.1573
rwrist -0.815322
rhand -19.6383 11.6647
rfingers 7.12502
rthumb 6.68898 -18.2097
lclavicle 6.55989e-015 -1.11319e-014
lhumerus -49.3119 38.1265 57.3033
lradius 11.5795
lwrist -38.1558
lhand -13.2065 21.9679
lfingers 7.12502
lthumb 12.8941 51.5496
rfemur 12.7148 5.97416 23.7835
rtibia 33.3973
rfoot 10.2525 10.7051
rtoes -15.8985
lfemur -35.485 0.407206 -23.6461
ltibia 35.1995
lfoot -2.32437 3.63351
ltoes 11.3745
151
root -4.28748 17.0538 -0.678261 -0.677107 32.3302 -6.12378
lowerback 7.34651 1.35678 3.64158
upperback -0.593692 2.30023 3.11825
thorax -4.73003 1.09425 0.934755
lowerneck -15.9827 -3.63859 -8.93211
upperneck 22.7233 -3.63302 4.1019
head 10.1387 -1.94052 2.45953
rclavicle 1.12512e-013 1.90833e-014
rhumerus -37.586 -14.136 -76.2002
rradius 39.4242
rwrist -3.47694
rhand -17.0419 8.47033
rfingers 7.12502
rthumb 9.19487 -21.3092
lclavicle 1.12512e-013 1.90833e-014
lhumerus -47.513 36.0889 60.4667
lradius 12.2219
lwrist -35.064
lhand -13.1894 22.7928
lfingers 7.12502
lthumb 12.9106 52.3734
rfemur 10.811 6.32249 23.6649
rtibia 37.2481
rfoot 10.5801 11.4201
rtoes -14.561
lfemur -34.6137 0.902152 -23.7316
ltibia 35.7704
lfoot -3.06082 3.38917
ltoes 12.9305
152
root -4.15748 17.0731 -0.473922 -0.528053 32.237 -5.69054
lowerback 7.16996 1.41671 3.20349
upperback -0.339742 2.31636 3.07122
thorax -4.37947 1.11776 1.13572
lowerneck -16.3823 -3.64195 -9.03398
upperneck 22.7346 -3.56789 4.08175
head 10.2162 -1.91853 2.47468
rclavicle 1.23843e-013 1.94809e-014
rhumerus -37.3121 -13.9465 -76.3183
rradius 37.9544
rwrist -2.34956
rhand -18.68 11.5134
rfingers 7.12502
rthumb 7.614 -18.3296
lclavicle 1.23843e-013 1.94809e-014
lhumerus -46.4842 34.7701 62.6288
lradius 12.942
lwrist -33.0288
lhand -13.0421 23.6951
lfingers 7.12502
lthumb 13.0526 53.2667
rfemur 8.72594 6.70096 23.2789
rtibia 41.0876
rfoot 9.85233 11.8518
rtoes -16.0602
lfemur -33.822 1.32669 -24.1627
ltibia 36.1801
lfoot -3.82859 2.89725
ltoes 13.9809
153
root -4.03298 17.0838 -0.273526 -0.0881035 32.3806 -4.68914
lowerback 7.18969 1.36814 2.27834
upperback -0.230572 2.1575 2.87175
thorax -4.30188 1.05755 1.46398
lowerneck -16.5006 -3.51227 -8.91692
upperneck 22.6495 -3.36481 3.91908
head 10.1876 -1.83212 2.42354
rclavicle 7.78739e-014 -7.55382e-015
rhumerus -37.2802 -13.8431 -76.3757
rradius 35.897
rwrist 0.399401
rhand -21.1951 16.4855
rfingers 7.12502
rthumb 5.18593 -13.4311
lclavicle 7.78739e-014 -7.55382e-015
lhumerus -45.5905 33.0049 64.776
lradius 13.6409
lwrist -30.6391
lhand -12.6357 23.0379
lfingers 7.12502
lthumb 13.4444 52.584
rfemur 6.6998 6.58273 22.3232
rtibia 44.8312
rfoot 7.97388 11.5619
rtoes -18.9238
lfemur -32.9157 1.58083 -25.1878
ltibia 36.2901
lfoot -4.35279 2.7509
ltoes 13.7992
154
root -3.91196 17.1053 -0.0747501 0.489341 32.5786 -3.28286
lowerback 7.41028 1.29215 1.02761
upperback -0.183853 1.93568 2.53328
thorax -4.40329 0.969529 1.83419
lowerneck -16.4236 -3.32065 -8.5657
upperneck 22.517 -3.12163 3.61454
head 10.0956 -1.72444 2.28969
rclavicle -4.05024e-014 7.95139e-016
rhumerus -37.3089 -13.3837 -76.7494
rradius 36.1415
rwrist -0.553921
rhand -20.2827 14.3427
rfingers 7.12502
rthumb 6.06693 -15.5504
lclavicle -4.05024e-014 7.95139e-016
lhumerus -44.7117 30.769 66.9714
lradius 14.3917
lwrist -27.7502
lhand -11.5257 21.7203
lfingers 7.12502
lthumb 14.5141 51.1926
rfemur 4.75799 6.07339 20.9188
rtibia 48.3221
rfoot 6.14944 10.2837
rtoes -18.9062
lfemur -31.7044 1.67415 -26.5121
ltibia 36.0863
lfoot -4.75323 2.89293
ltoes 13.4478
155
root -3.78518 17.1377 0.121928 1.08401 32.8099 -1.8938
lowerback 7.62906 1.18352 -0.0784743
upperback -0.195483 1.67611 2.14279
thorax -4.55104 0.860257 2.07578
lowerneck -16.3172 -3.16611 -8.49736
upperneck 22.6079 -2.94493 3.66086
head 10.0946 -1.63337 2.32124
rclavicle -2.43511e-015 -3.57812e-015
rhumerus -37.2909 -12.8169 -77.2129
rradius 36.4359
rwrist -1.4425
rhand -19.4615 12.4572
rfingers 7.12502
rthumb 6.85963 -17.4117
lclavicle -2.43511e-015 -3.57812e-015
lhumerus -43.9299 28.1293 69.2293
lradius 15.289
lwrist -24.2332
lhand -10.1634 20.4569
lfingers 7.12502
lthumb 15.8263 49.83
rfemur 2.75657 5.50845 19.4203
rtibia 51.4475
rfoot 4.65579 9.23213
rtoes -18.2043
lfemur -30.3493 1.58021 -27.7666
ltibia 35.7013
lfoot -5.20173 2.66116
ltoes 14.0222
156
root -3.65632 17.1576 0.313744 1.57835 33.1574 -0.601255
lowerback 7.93365 1.04231 -1.08603
upperback -0.215463 1.38302 1.88305
thorax -4.74974 0.73625 2.40326
lowerneck -16.0858 -3.04102 -8.69039
upperneck 22.6265 -2.7605 3.75572
head 10.0496 -1.55556 2.4144
rclavicle 4.52235e-014 -7.95139e-016
rhumerus -37.171 -12.2107 -77.4424
rradius 36.1255
rwrist -1.40306
rhand -19.1475 12.2052
rfingers 7.12502
rthumb 7.16274 -17.6536
lclavicle 4.52235e-014 -7.95139e-016
lhumerus -43.125 25.0362 72.0686
lradius 16.2421
lwrist -20.2883
lhand -10.2765 20.8207
lfingers 7.12502
lthumb 15.7174 50.2025
rfemur 0.932161 4.8272 17.9516
rtibia 54.1723
rfoot 3.22671 8.24656
rtoes -17.2063
lfemur -28.9462 1.42565 -28.9926
ltibia 35.2614
lfoot -5.60807 2.28743
ltoes 13.7317
157
root -3.52992 17.1692 0.501117 1.85812 33.5662 0.27657
lowerback 8.15927 0.87754 -1.7641
upperback -0.137868 1.0915 1.77606
thorax -4.7919 0.606516 2.70802
lowerneck -15.9593 -2.9306 -8.86914
upperneck 22.525 -2.56387 3.7403
head 9.97885 -1.48143 2.46493
rclavicle 3.65764e-014 -3.97569e-015
rhumerus -36.8833 -11.8579 -77.5569
rradius 35.5066
rwrist -0.516326
rhand -18.3847 12.1237
rfingers 7.12502
rthumb 7.89904 -17.7087
lclavicle 3.65764e-014 -3.97569e-015
lhumerus -42.3149 23.1699 74.0546
lradius 16.6718
lwrist -18.202
lhand -10.8871 21.8026
lfingers 7.12502
lthumb 15.1293 51.2296
rfemur -0.76864 4.0009 16.9544
rtibia 56.473
rfoot 1.90347 7.25433
rtoes -17.7408
lfemur -27.6422 1.28924 -29.8545
ltibia 34.9588
lfoot -6.09346 2.224
ltoes 13.2235
158
root -3.4002 17.1892 0.690207 2.10911 33.9237 0.97337
lowerback 8.19746 0.714017 -2.2567
upperback 0.0104692 0.820953 1.68406
thorax -4.64777 0.479529 2.92367
lowerneck -16.0735 -2.80303 -8.89987
upperneck 22.5153 -2.33139 3.60492
head 9.98002 -1.39139 2.45264
rclavicle -6.37105e-014 1.43125e-014
rhumerus -36.5035 -11.6737 -77.6536
rradius 34.9424
rwrist 0.695963
rhand -17.4082 12.4004
rfingers 7.12502
rthumb 8.84145 -17.3944
lclavicle -6.37105e-014 1.43125e-014
lhumerus -41.5619 23.1667 74.6312
lradius 16.4162
lwrist -18.5247
lhand -10.9015 20.8903
lfingers 7.12502
lthumb 15.1154 50.3184
rfemur -2.5289 3.24044 16.1339
rtibia 58.4343
rfoot 0.774208 6.49696
rtoes -18.7967
lfemur -26.4586 1.22332 -30.5128
ltibia 34.8064
lfoot -6.7916 2.10748
ltoes 13.4801
159
root -3.27579 17.201 0.87935 2.02086 34.2034 1.04548
lowerback 8.23564 0.567268 -2.29156
upperback 0.160148 0.626643 1.78003
thorax -4.50125 0.381577 3.06716
lowerneck -16.2132 -2.75925 -9.03501
upperneck 22.4925 -2.1865 3.47382
head 9.98997 -1.35009 2.44708
rclavicle 1.40143e-014 -3.57812e-015
rhumerus -36.1303 -11.4605 -77.6605
rradius 34.4936
rwrist 1.87914
rhand -16.7392 12.8522
rfingers 7.12502
rthumb 9.48699 -16.9142
lclavicle 1.40143e-014 -3.57812e-015
lhumerus -40.7642 22.7277 75.6502
lradius 16.499
lwrist -18.5082
lhand -11.2769 20.5053
lfingers 7.12502
lthumb 14.7537 49.9602
rfemur -4.2106 2.73131 16.0068
rtibia 60.1416
rfoot -0.632832 5.23176
rtoes -18.3589
lfemur -25.3752 1.00393 -30.5444
ltibia 34.7391
lfoot -7.72136 2.18477
ltoes 14.3228
160
root -3.15034 17.2095 1.06673 1.91929 34.47 0.921953
lowerback 8.17977 0.472122 -2.1272
upperback 0.210814 0.520972 1.87123
thorax -4.40881 0.32498 3.08212
lowerneck -16.0928 -2.77901 -9.16224
upperneck 22.5521 -2.18899 3.4696
head 9.99132 -1.36393 2.46773
rclavicle 3.28492e-014 1.11319e-014
rhumerus -35.9813 -11.539 -77.5663
rradius 34.1183
rwrist 3.29979
rhand -14.5482 11.2262
rfingers 7.12502
rthumb 11.6005 -18.4327
lclavicle 3.28492e-014 1.11319e-014
lhumerus -39.9559 20.447 77.6298
lradius 17.2469
lwrist -16.7768
lhand -11.239 20.5377
lfingers 7.12502
lthumb 14.7902 49.9899
rfemur -6.05885 2.07421 16.118
rtibia 61.6467
rfoot -2.18673 3.3973
rtoes -18.9214
lfemur -24.435 0.782197 -30.4408
ltibia 34.6369
lfoot -8.42315 2.47534
ltoes 14.0901
161
root -3.01562 17.238 1.25206 2.0647 34.7835 1.05996
lowerback 8.09853 0.379981 -2.0946
upperback 0.126942 0.400655 1.83535
thorax -4.44163 0.265584 3.04071
lowerneck -15.7081 -2.72305 -9.02733
upperneck 22.579 -2.15577 3.36271
head 9.92285 -1.35114 2.41404
rclavicle 1.26725e-013 2.38542e-015
rhumerus -36.1647 -11.8051 -77.493
rradius 33.8839
rwrist 4.70071
rhand -11.5046 8.94437
rfingers 7.12502
rthumb 14.5344 -20.5265
lclavicle 1.26725e-013 2.38542e-015
lhumerus -39.4136 18.8392 78.8529
lradius 17.82
lwrist -16.0324
lhand -10.9849 19.6197
lfingers 7.12502
lthumb 15.0351 49.0538
rfemur -8.25208 1.45032 15.9128
rtibia 62.9553
rfoot -3.07525 1.60248
rtoes -15.6759
lfemur -23.5454 0.700857 -30.606
ltibia 34.6064
lfoot -9.10462 2.51392
ltoes 13.1799
162
root -2.883 17.2658 1.4329 2.18617 35.0839 1.27832
lowerback 8.05877 0.23914 -2.20822
upperback 0.165565 0.20411 1.85801
thorax -4.36605 0.169305 3.15162
lowerneck -15.4893 -2.57394 -8.61258
upperneck 22.5065 -1.95378 2.87168
head 9.83254 -1.27771 2.1983
rclavicle 3.88624e-014 5.56597e-015
rhumerus -36.1089 -11.8552 -77.4574
rradius 33.7107
rwrist 5.75044
rhand -11.0361 8.96167
rfingers 7.12502
rthumb 14.9857 -20.4761
lclavicle 3.88624e-014 5.56597e-015
lhumerus -38.7151 18.8543 79.3464
lradius 17.9906
lwrist -16.7858
lhand -11.1854 19.6847
lfingers 7.12502
lthumb 14.8419 49.1331
rfemur -10.3605 0.963807 15.584
rtibia 64.0601
rfoot -3.8748 0.376733
rtoes -13.0376
lfemur -22.6199 0.796454 -30.8276
ltibia 34.6516
lfoot -9.90246 2.31765
ltoes 12.9589
163
root -2.76043 17.2638 1.61294 2.15223 35.2338 1.1402
lowerback 7.98495 0.15224 -2.01856
upperback 0.217872 0.110813 1.93699
thorax -4.2631 0.118009 3.13692
lowerneck -15.3013 -2.46827 -8.52461
upperneck 22.3805 -1.81834 2.75774
head 9.74164 -1.21891 2.1608
rclavicle 8.54774e-015 1.35174e-014
rhumerus -36.1647 -11.9123 -77.4613
rradius 33.6985
rwrist 6.29245
rhand -12.57 10.5426
rfingers 7.12502
rthumb 13.5077 -18.9994
lclavicle 8.54774e-015 1.35174e-014
lhumerus -38.0323 18.1424 80.1833
lradius 18.5608
lwrist -16.8594
lhand -11.4918 20.9946
lfingers 7.12502
lthumb 14.5467 50.4646
rfemur -12.1622 0.476048 15.7808
rtibia 64.8417
rfoot -5.05035 -1.35867
rtoes -15.253
lfemur -21.8527 0.613826 -30.6579
ltibia 34.7174
lfoot -10.6847 2.45518
ltoes 13.0076
